# xmcd
#
# Track frame offsets: 
#        150
#        15251
#        30998
#        43926
#        60288
#        77755
#        92642
#        111670
#        130117
#        150063
#        165219
#        181875
#        194897
#
# Disc length: 2911 seconds
#
# Revision: 0
# Processed by: cddbd v1.5.2PL0 Copyright (c) Steve Scherf et al.
# Submitted via: ExactAudioCopy v0.99pb3
#
DISCID=920b5d0d
DTITLE=Amy Winehouse - Live at Paradiso Amsterdam
DYEAR=2007
DGENRE=Pop
TTITLE0=Just friends
TTITLE1=Tears dry on their own
TTITLE2=Cherry
TTITLE3=Fuck me pumps
TTITLE4=He can only hold her
TTITLE5=I heard love is blind
TTITLE6=Wake up alone
TTITLE7=Back to black
TTITLE8=You know that I'm no good
TTITLE9=Me and Mr. Jones
TTITLE10=Rehab
TTITLE11=Love is a losing game
TTITLE12=Valerie
EXTD=
EXTT0=
EXTT1=
EXTT2=
EXTT3=
EXTT4=
EXTT5=
EXTT6=
EXTT7=
EXTT8=
EXTT9=
EXTT10=
EXTT11=
EXTT12=
PLAYORDER=
